<?xml version="1.0" encoding="utf-8"?>
<!-- Generator: Adobe Illustrator 24.1.1, SVG Export Plug-In . SVG Version: 6.00 Build 0)  -->
<svg version="1.1" id="Layer_1" xmlns="http://www.w3.org/2000/svg" xmlns:xlink="http://www.w3.org/1999/xlink" x="0px" y="0px"
	 viewBox="0 0 2000 596" style="enable-background:new 0 0 2000 596;" xml:space="preserve">
<style type="text/css">
	.st0{fill:#FFD602;}
</style>
<g>
	<g>
		<path class="st0" d="M644.8,372.7c3.6-3.3,7.2-6.6,10.8-9.9c15.3-14.4,29.1-30.2,41.3-47.2c2.2-3,4.7-5.2,8.2-6.1
			c5.4-1.5,11.1,0.5,14.4,5.2c3.3,4.5,3.4,10.8,0,15.5c-4.6,6.3-9.3,12.6-14.2,18.5c-46.7,56.5-104.9,95.7-174.7,118
			c-19.4,6.2-39.2,10.5-59.4,13.3c-19,2.7-38,4-57.2,3.5c-87.2-2.4-164.3-31.5-231-87.5c-22.9-19.1-42.8-41-60.2-65.1
			c-6-8.3-2.1-19.5,7.8-21.4c5.9-1.2,10.6,1.2,14.2,6c4.4,5.8,8.8,11.7,13.4,17.3c44.2,53.2,99.5,89.6,165.6,109.7
			c18.3,5.6,37.1,9.4,56.2,11.7c16.9,2.1,33.8,2.9,50.8,2.4c17.7-0.5,35.3-2.4,52.8-5.8c13.8-2.7,25.1-14.8,26.6-28.7
			c0.2-2,0.3-4,0.3-6c0-24.6,0-49.3,0-73.9c0.1-29.8,20.8-56.4,49.6-63.9c32-8.3,64.5,7.5,78,38.1c4.1,9.3,6,19,6.1,29
			c0,8.3,0,16.7,0,25c0,0.7,0,1.4,0,2.1C644.4,372.6,644.6,372.6,644.8,372.7z M537.5,435.9c2.3-0.8,4.3-1.5,6.4-2.5
			c7.8-3.3,13.6-8.9,17.1-16.6c2.1-4.4,2.8-9.2,2.8-14c-0.1-19.9,0-39.7,0-59.6c0-6.3,3.7-11.3,9.4-13.2c5.6-1.8,11.2,0.1,14.7,4.9
			c2,2.7,2.8,5.7,2.8,9c0,21.6,0,43.2,0,64.8c0,0.6,0,1.3,0,2.4c2.3-1.3,4.1-2.5,6-3.5c12.8-7.7,19.2-19.4,20.2-34
			c0.6-8.8,0.3-17.6,0.3-26.4c0-3.2-0.1-6.4-0.6-9.6c-3-20-21.2-37.6-45.3-34.2c-18.8,2.7-33.7,19.4-33.8,38.3
			c-0.1,30.8,0,61.5,0,92.3C537.4,434.5,537.5,435,537.5,435.9z"/>
		<path class="st0" d="M260.4,112.5c41.8,1.4,75.9,18.2,101.4,52c6.6,8.8,1.8,20.3-9.2,21.6c-5.3,0.7-9.4-1.5-12.5-5.8
			c-7.3-10.1-16.2-18.5-26.7-25.2c-13.8-8.8-28.7-14.1-45.1-15.1c-36.3-2.3-65.6,11.1-87.6,40.1c-6.3,8.3-17.6,7.9-22.8,0.1
			c-3.1-4.7-2.9-10.7,0.6-15.6c10.4-14.3,23.3-26,38.6-34.9c15-8.8,31.2-14.1,48.5-16.2C250.7,113,255.4,112.8,260.4,112.5z"/>
		<path class="st0" d="M582,112.5c41.8,1.4,75.9,18.2,101.4,52c2.9,3.9,3.7,8.2,2.1,12.8c-1.9,5-5.6,8-11,8.8
			c-5,0.6-9.3-1.1-12.4-5.3c-5.2-6.9-10.8-13.3-17.5-18.8c-14.9-12.2-31.8-19.9-51-21.7c-37.8-3.8-68.4,9.8-91.5,39.8
			c-6.7,8.7-19.1,7.8-23.5-1.6c-2.3-4.8-1.6-9.5,1.4-13.8c9.4-13,20.8-23.7,34.3-32.4c16.3-10.3,33.9-16.6,53.1-18.9
			C572.2,113,577,112.8,582,112.5z"/>
	</g>
	<g>
		<g>
			<g>
				<path class="st0" d="M815.3,320h80.2c18.1,0,34.1,3.3,48,9.9c13.9,6.6,24.6,16,32.3,28.2c7.6,12.3,11.5,26.7,11.5,43.2
					c0,16.6-3.8,31-11.5,43.2c-7.6,12.3-18.4,21.6-32.3,28.2c-13.9,6.6-29.9,9.9-48,9.9h-80.2V320z M893.2,439.9
					c11.7,0,21.2-3.4,28.2-10.1s10.6-16.2,10.6-28.4c0-12.3-3.5-21.7-10.6-28.4c-7-6.7-16.5-10.1-28.2-10.1h-23V440h23V439.9z"/>
				<path class="st0" d="M1142.6,441.3v41.3h-135.3V320h132.2v41.3h-78.3v19.1h68.8v39.5h-68.8v21.3h81.4V441.3z"/>
				<path class="st0" d="M1163.7,320h54.8v120.2h73.5v42.6h-128.3V320z"/>
				<path class="st0" d="M1307.2,320h54.8v162.7h-54.8V320z"/>
				<path class="st0" d="M1562.3,320l-68.8,162.7h-53.9L1370.8,320h59l38.8,95l39.8-95L1562.3,320L1562.3,320z"/>
				<path class="st0" d="M1702.9,441.3v41.3h-135.3V320h132.2v41.3h-78.3v19.1h68.8v39.5h-68.8v21.3h81.4V441.3z"/>
				<path class="st0" d="M1793.8,441.8h-14.8v40.9h-54.8V320h78.3c15,0,28.1,2.5,39.3,7.4c11.1,4.9,19.8,12.1,25.8,21.3
					c6.1,9.3,9.1,20.1,9.1,32.6c0,11.6-2.7,21.7-7.9,30.4c-5.3,8.7-12.9,15.6-22.8,20.7l34.2,50.2h-58.5L1793.8,441.8z
					 M1815.6,367.3c-3.7-3.3-9.3-4.9-16.7-4.9h-20v38.1h20c7.4,0,13-1.6,16.7-4.9s5.6-8,5.6-14
					C1821.2,375.4,1819.3,370.6,1815.6,367.3z"/>
			</g>
			<g>
				<g>
					<path class="st0" d="M975.8,118.5v162.7H921v-60h-50.7v60h-54.8V118.5h54.8v57.6H921v-57.6C921,118.5,975.8,118.5,975.8,118.5z
						"/>
					<path class="st0" d="M1113,252.9h-61.8l-10.9,28.3h-55.7l71.1-162.7h53.9l71.1,162.7H1124L1113,252.9z M1098,213.3l-15.8-40.9
						l-15.8,40.9H1098z"/>
					<path class="st0" d="M1307.2,125.9c11.1,4.9,19.8,12.1,25.8,21.3c6.1,9.3,9.1,20.1,9.1,32.6c0,12.5-3,23.3-9.1,32.6
						c-6.1,9.3-14.6,16.4-25.8,21.4c-11.1,5-24.2,7.4-39.3,7.4h-23.5v40h-54.8V118.5h78.3C1282.9,118.5,1295.9,121,1307.2,125.9z
						 M1281.1,193.9c3.7-3.3,5.6-8,5.6-14c0-6.1-1.9-10.7-5.6-14s-9.3-4.9-16.7-4.9h-20v38.1h20
						C1271.8,198.9,1277.4,197.2,1281.1,193.9z"/>
					<path class="st0" d="M1477.5,125.9c11.1,4.9,19.8,12.1,25.8,21.3c6.1,9.3,9.1,20.1,9.1,32.6c0,12.5-3,23.3-9.1,32.6
						c-6.1,9.3-14.6,16.4-25.8,21.4c-11.1,4.9-24.2,7.4-39.3,7.4h-23.5v40h-54.8V118.5h78.3C1453.2,118.5,1466.3,121,1477.5,125.9z
						 M1451.4,193.9c3.7-3.3,5.6-8,5.6-14c0-6.1-1.9-10.7-5.6-14s-9.3-4.9-16.7-4.9h-20v38.1h20
						C1442.2,198.9,1447.7,197.2,1451.4,193.9z"/>
					<path class="st0" d="M1626.9,222.2v59h-54.8v-59.8l-61.3-102.9h57.9l33.2,56.3l33.5-56.3h53L1626.9,222.2z"/>
				</g>
				<path class="st0" d="M1826.3,192.4c1,2,1.5,4.1,1.5,6.6c0,2.6-0.5,4.7-1.5,6.6c-0.9,1.9-2.4,3.3-4,4.4c-1.6,1-3.6,1.5-5.8,1.5
					c-2.1,0-4-0.5-5.7-1.5c-1.8-1-3.1-2.6-4.1-4.4c-0.9-1.9-1.4-4.1-1.4-6.6c0-2.6,0.5-4.7,1.4-6.6c1-1.9,2.4-3.3,4.1-4.3
					c1.6-1,3.6-1.5,5.7-1.5s4,0.5,5.8,1.5C1823.9,189.1,1825.4,190.6,1826.3,192.4z"/>
				<path class="st0" d="M1794.6,113.3c-47.2,0-85.3,38.2-85.3,85.4c0,47.1,38.2,85.3,85.3,85.3s85.3-38.2,85.3-85.3
					C1880,151.6,1841.8,113.3,1794.6,113.3z M1786.5,187.1h-14.7v37.2h-17v-37.2h-14.7V174h46.4v13.1H1786.5z M1841.3,212.6
					c-2.5,4-5.9,7.1-10.2,9.4c-4.3,2.2-9.2,3.3-14.6,3.3c-5.4,0-10.3-1.1-14.6-3.3c-4.2-2.3-7.6-5.4-10.1-9.4
					c-2.5-4-3.7-8.6-3.7-13.6c0-5,1.2-9.5,3.7-13.5c2.5-4,5.9-7.1,10.1-9.4c4.3-2.2,9.2-3.3,14.6-3.3c5.4,0,10.3,1.1,14.6,3.3
					c4.3,2.3,7.6,5.4,10.2,9.4c2.5,4,3.6,8.4,3.6,13.5C1844.9,204.1,1843.7,208.7,1841.3,212.6z"/>
			</g>
		</g>
	</g>
</g>
</svg>
